<mxfile host="65bd71144e">
    <diagram id="bkP4PvMtRLXMp-AQfPMh" name="Page-1">
        <mxGraphModel dx="1041" dy="1771" grid="1" gridSize="10" guides="1" tooltips="1" connect="1" arrows="1" fold="1" page="1" pageScale="1" pageWidth="850" pageHeight="1100" math="0" shadow="0">
            <root>
                <mxCell id="0"/>
                <mxCell id="1" parent="0"/>
                <mxCell id="2" value="Main Menu" style="text;html=1;strokeColor=default;fillColor=none;align=center;verticalAlign=middle;whiteSpace=wrap;rounded=0;" vertex="1" parent="1">
                    <mxGeometry x="360" y="-1080" width="100" height="30" as="geometry"/>
                </mxCell>
                <mxCell id="3" value="2. Passenger Information" style="text;html=1;strokeColor=default;fillColor=none;align=center;verticalAlign=middle;whiteSpace=wrap;rounded=0;" vertex="1" parent="1">
                    <mxGeometry x="460" y="-1030" width="150" height="30" as="geometry"/>
                </mxCell>
                <mxCell id="4" value="1. Flights Information" style="text;html=1;strokeColor=default;fillColor=none;align=center;verticalAlign=middle;whiteSpace=wrap;rounded=0;" vertex="1" parent="1">
                    <mxGeometry x="220" y="-1030" width="150" height="30" as="geometry"/>
                </mxCell>
                <mxCell id="5" value="3. Booking Information" style="text;html=1;strokeColor=default;fillColor=none;align=center;verticalAlign=middle;whiteSpace=wrap;rounded=0;" vertex="1" parent="1">
                    <mxGeometry x="650" y="-1030" width="150" height="30" as="geometry"/>
                </mxCell>
                <mxCell id="6" value="0. Exit the Program" style="text;html=1;strokeColor=default;fillColor=none;align=center;verticalAlign=middle;whiteSpace=wrap;rounded=0;" vertex="1" parent="1">
                    <mxGeometry x="30" y="-1030" width="140" height="30" as="geometry"/>
                </mxCell>
                <mxCell id="32" value="" style="curved=1;endArrow=classic;html=1;entryX=0.61;entryY=-0.117;entryDx=0;entryDy=0;entryPerimeter=0;exitX=0;exitY=0.5;exitDx=0;exitDy=0;" edge="1" parent="1" source="2" target="6">
                    <mxGeometry width="50" height="50" relative="1" as="geometry">
                        <mxPoint x="130" y="-1000" as="sourcePoint"/>
                        <mxPoint x="180" y="-1050" as="targetPoint"/>
                        <Array as="points">
                            <mxPoint x="170" y="-1065"/>
                            <mxPoint x="140" y="-1065"/>
                            <mxPoint x="130" y="-1050"/>
                        </Array>
                    </mxGeometry>
                </mxCell>
                <mxCell id="33" value="" style="curved=1;endArrow=classic;html=1;entryX=0.569;entryY=-0.117;entryDx=0;entryDy=0;entryPerimeter=0;" edge="1" parent="1" target="5">
                    <mxGeometry width="50" height="50" relative="1" as="geometry">
                        <mxPoint x="460" y="-1070" as="sourcePoint"/>
                        <mxPoint x="510" y="-1120" as="targetPoint"/>
                        <Array as="points">
                            <mxPoint x="510" y="-1070"/>
                            <mxPoint x="570" y="-1070"/>
                            <mxPoint x="620" y="-1070"/>
                            <mxPoint x="670" y="-1070"/>
                        </Array>
                    </mxGeometry>
                </mxCell>
                <mxCell id="35" value="" style="endArrow=classic;html=1;entryX=0.5;entryY=0;entryDx=0;entryDy=0;exitX=0;exitY=1;exitDx=0;exitDy=0;" edge="1" parent="1" source="2" target="4">
                    <mxGeometry width="50" height="50" relative="1" as="geometry">
                        <mxPoint x="400" y="-910" as="sourcePoint"/>
                        <mxPoint x="450" y="-960" as="targetPoint"/>
                    </mxGeometry>
                </mxCell>
                <mxCell id="36" value="" style="endArrow=classic;html=1;entryX=0.5;entryY=0;entryDx=0;entryDy=0;exitX=1;exitY=1;exitDx=0;exitDy=0;" edge="1" parent="1" source="2" target="3">
                    <mxGeometry width="50" height="50" relative="1" as="geometry">
                        <mxPoint x="400" y="-910" as="sourcePoint"/>
                        <mxPoint x="450" y="-960" as="targetPoint"/>
                    </mxGeometry>
                </mxCell>
            </root>
        </mxGraphModel>
    </diagram>
</mxfile>